<svg version="1.1" xmlns="http://www.w3.org/2000/svg" viewBox="0 0 368.97406005859375 330.8656311035156" width="368.97406005859375" height="330.8656311035156" filter="invert(93%) hue-rotate(180deg)" class="excalidraw-svg">
  <!-- svg-source:excalidraw -->
  
  <defs>
    <style class="style-fonts">
      @font-face {
        font-family: "Virgil";
        src: url("https://excalidraw.com/Virgil.woff2");
      }
      @font-face {
        font-family: "Cascadia";
        src: url("https://excalidraw.com/Cascadia.woff2");
      }
      @font-face {
        font-family: "Assistant";
        src: url("https://excalidraw.com/Assistant-Regular.woff2");
      }
    </style>
    
  </defs>
  <rect x="0" y="0" width="368.97406005859375" height="330.8656311035156" fill="#ffffff"/><g stroke-linecap="round" transform="translate(27.19659423828125 10.138916015625) rotate(0 61.89263916015625 30.124740600585938)"><path d="M15.06 0 C39.86 0.74, 68.26 1.59, 108.72 0 M15.06 0 C44.42 -0.74, 74.62 0.67, 108.72 0 M108.72 0 C118.7 -1.39, 125.16 4.92, 123.79 15.06 M108.72 0 C120.17 -0.57, 125.26 3.73, 123.79 15.06 M123.79 15.06 C122 28.04, 122.13 38.87, 123.79 45.19 M123.79 15.06 C123.72 21.3, 123.28 28.38, 123.79 45.19 M123.79 45.19 C122.4 55.69, 120.71 59.39, 108.72 60.25 M123.79 45.19 C124.02 56.03, 117.04 60.59, 108.72 60.25 M108.72 60.25 C71.17 60.96, 35.35 59.48, 15.06 60.25 M108.72 60.25 C84.07 60.58, 59.61 60.29, 15.06 60.25 M15.06 60.25 C6.31 59.78, 0.43 55.93, 0 45.19 M15.06 60.25 C6.69 62.44, -1.39 57.48, 0 45.19 M0 45.19 C1.21 33.09, -0.49 26.57, 0 15.06 M0 45.19 C-0.74 37.64, 0.58 30.88, 0 15.06 M0 15.06 C1.18 5.96, 3.88 1.92, 15.06 0 M0 15.06 C2.1 3.42, 4.82 -0.53, 15.06 0" stroke="#1e1e1e" stroke-width="2" fill="none"/></g><g stroke-linecap="round" transform="translate(64.44171142578125 95.58364868164062) rotate(0 20.2657470703125 18.62255859375)"><path d="M16.56 0.33 C20.59 -0.7, 26.79 0.06, 30.6 2.13 C34.4 4.21, 37.94 8.88, 39.39 12.76 C40.85 16.63, 40.86 21.71, 39.34 25.38 C37.81 29.05, 33.99 32.9, 30.26 34.77 C26.52 36.64, 21.2 37.22, 16.92 36.6 C12.63 35.97, 7.31 34, 4.55 31.03 C1.8 28.05, 0.4 22.74, 0.4 18.74 C0.4 14.74, 1.81 10.05, 4.55 7.01 C7.29 3.98, 14.68 1.6, 16.86 0.53 C19.03 -0.53, 17.44 0.32, 17.58 0.63 M25.35 0.81 C29.49 1.44, 34.13 4.93, 36.54 8.07 C38.95 11.21, 39.96 15.84, 39.82 19.66 C39.67 23.48, 38.6 28.17, 35.67 31.02 C32.75 33.86, 26.8 36.26, 22.26 36.73 C17.72 37.21, 11.92 36.01, 8.41 33.88 C4.9 31.75, 2.22 27.68, 1.18 23.95 C0.13 20.23, 0.53 15.06, 2.14 11.51 C3.75 7.96, 6.91 4.58, 10.84 2.66 C14.77 0.74, 23.39 0.32, 25.73 0 C28.07 -0.32, 25.16 0.3, 24.88 0.71" stroke="#1e1e1e" stroke-width="2" fill="none"/></g><g stroke-linecap="round" transform="translate(235.18878173828125 10) rotate(0 61.89263916015625 30.124740600585938)"><path d="M15.06 0 C42.28 0.48, 68.81 -0.07, 108.72 0 M15.06 0 C35.66 0.21, 57.01 -0.66, 108.72 0 M108.72 0 C118.46 -1.81, 124.42 4.69, 123.79 15.06 M108.72 0 C118.18 0.46, 122.02 4.29, 123.79 15.06 M123.79 15.06 C125.42 23.67, 122.49 34.91, 123.79 45.19 M123.79 15.06 C124.2 26.53, 123.8 38.51, 123.79 45.19 M123.79 45.19 C123.34 54.56, 117.52 59.48, 108.72 60.25 M123.79 45.19 C124.58 57.48, 120.22 60.04, 108.72 60.25 M108.72 60.25 C85.15 59.68, 58.21 61.1, 15.06 60.25 M108.72 60.25 C86.88 58.98, 63.54 60.67, 15.06 60.25 M15.06 60.25 C4.96 60.98, 1.25 55.89, 0 45.19 M15.06 60.25 C3.51 59.59, -0.19 56, 0 45.19 M0 45.19 C-1.23 35.51, -1.44 23.6, 0 15.06 M0 45.19 C-0.38 37.73, 0.09 30.07, 0 15.06 M0 15.06 C0.2 3.19, 4.7 -1.46, 15.06 0 M0 15.06 C-0.89 5.28, 5.15 0.17, 15.06 0" stroke="#1e1e1e" stroke-width="2" fill="none"/></g><g stroke-linecap="round" transform="translate(272.43389892578125 95.44473266601562) rotate(0 20.2657470703125 18.62255859375)"><path d="M20.05 0 C24.26 -0.23, 29.93 2.07, 33.24 4.58 C36.55 7.09, 39.19 11.19, 39.89 15.07 C40.6 18.96, 39.58 24.41, 37.49 27.88 C35.41 31.35, 31.33 34.59, 27.36 35.91 C23.4 37.23, 17.8 37.08, 13.68 35.82 C9.57 34.56, 4.95 31.68, 2.69 28.36 C0.43 25.03, -0.66 19.92, 0.14 15.88 C0.94 11.83, 3.98 6.76, 7.46 4.09 C10.94 1.41, 18.44 0.45, 21.02 -0.18 C23.61 -0.81, 22.92 -0.08, 22.97 0.31 M21.18 -0.22 C25.22 -0.42, 30.39 1.84, 33.64 4.73 C36.88 7.62, 39.96 13.11, 40.64 17.11 C41.32 21.1, 40.17 25.55, 37.72 28.71 C35.28 31.88, 30.24 34.79, 25.96 36.09 C21.68 37.38, 16.02 37.95, 12.05 36.47 C8.07 34.99, 3.96 30.98, 2.12 27.22 C0.27 23.47, 0.06 17.93, 0.97 13.94 C1.89 9.95, 4.17 5.7, 7.6 3.29 C11.04 0.88, 19.4 -0.14, 21.57 -0.5 C23.75 -0.86, 20.71 0.69, 20.65 1.13" stroke="#1e1e1e" stroke-width="2" fill="none"/></g><g stroke-linecap="round" transform="translate(38.392578125 198.17578125) rotate(0 61.89263916015625 30.124740600585938)"><path d="M15.06 0 C44.7 -0.99, 71.26 -2, 108.72 0 M15.06 0 C46.25 0.16, 78.59 -0.25, 108.72 0 M108.72 0 C117.86 1.75, 124.41 6.09, 123.79 15.06 M108.72 0 C118.51 2.09, 122.84 6.92, 123.79 15.06 M123.79 15.06 C122.47 26.45, 122.1 37.03, 123.79 45.19 M123.79 15.06 C123.79 21.15, 124.52 27.78, 123.79 45.19 M123.79 45.19 C121.89 55.66, 118.44 60.01, 108.72 60.25 M123.79 45.19 C121.87 56.56, 116.48 62.51, 108.72 60.25 M108.72 60.25 C76.32 59.85, 45.14 59.76, 15.06 60.25 M108.72 60.25 C73.91 59.16, 39.88 58.89, 15.06 60.25 M15.06 60.25 C5.43 58.87, -1.74 57, 0 45.19 M15.06 60.25 C6.28 58.15, 0.18 53.93, 0 45.19 M0 45.19 C-1.73 36.52, -1.36 30.79, 0 15.06 M0 45.19 C0.77 38.99, 0.02 32.87, 0 15.06 M0 15.06 C-1.34 6.04, 4.87 1.96, 15.06 0 M0 15.06 C0.39 4.92, 5.85 1.85, 15.06 0" stroke="#1e1e1e" stroke-width="2" fill="none"/></g><g stroke-linecap="round" transform="translate(75.6376953125 283.6205139160156) rotate(0 20.2657470703125 18.62255859375)"><path d="M16.43 -0.15 C20.4 -1.11, 26.43 0.01, 30.19 2 C33.96 3.99, 37.43 7.98, 39.04 11.8 C40.64 15.62, 41.19 21.12, 39.84 24.92 C38.48 28.72, 34.62 32.59, 30.89 34.57 C27.16 36.55, 21.72 37.37, 17.46 36.8 C13.2 36.22, 8.18 34.16, 5.32 31.13 C2.47 28.09, 0.51 22.64, 0.32 18.6 C0.13 14.56, 1.49 9.97, 4.2 6.9 C6.9 3.82, 14.4 1.24, 16.56 0.16 C18.72 -0.92, 17.05 0.1, 17.15 0.42 M19.29 0.16 C23.29 -0.19, 29.59 1.54, 32.97 4.11 C36.34 6.68, 38.84 11.53, 39.55 15.58 C40.26 19.64, 39.18 25.01, 37.2 28.46 C35.22 31.9, 31.61 35.06, 27.67 36.25 C23.72 37.45, 17.7 37.1, 13.54 35.63 C9.38 34.16, 4.96 30.71, 2.72 27.46 C0.48 24.2, -0.7 20.02, 0.1 16.1 C0.9 12.18, 4.3 6.64, 7.51 3.91 C10.72 1.19, 17.4 0.41, 19.37 -0.26 C21.34 -0.92, 19.2 -0.35, 19.34 -0.09" stroke="#1e1e1e" stroke-width="2" fill="none"/></g><g stroke-linecap="round" transform="translate(10 176.51841735839844) rotate(0 61.89263916015625 30.124740600585938)"><path d="M15.06 0 C35.15 -0.69, 57.62 -0.37, 108.72 0 M15.06 0 C42.23 -0.6, 68.8 0.61, 108.72 0 M108.72 0 C116.96 -0.88, 125.37 4.94, 123.79 15.06 M108.72 0 C119.98 1.63, 125.58 4.87, 123.79 15.06 M123.79 15.06 C122.02 24.75, 122.21 37.09, 123.79 45.19 M123.79 15.06 C123.02 24.53, 123.08 33.07, 123.79 45.19 M123.79 45.19 C125.55 54.55, 117.23 59.6, 108.72 60.25 M123.79 45.19 C121.85 56.86, 118.73 59.2, 108.72 60.25 M108.72 60.25 C74.44 60.75, 40.22 59.41, 15.06 60.25 M108.72 60.25 C85.22 60.32, 63.52 61.03, 15.06 60.25 M15.06 60.25 C4.22 61.29, 1.82 56.4, 0 45.19 M15.06 60.25 C4.13 61.53, 2.02 57.22, 0 45.19 M0 45.19 C-1.77 34.37, -0.47 25.8, 0 15.06 M0 45.19 C0.84 36.09, -0.55 26.84, 0 15.06 M0 15.06 C-1.89 4.84, 4.47 -0.27, 15.06 0 M0 15.06 C2.04 4.61, 6.29 2.03, 15.06 0" stroke="#1e1e1e" stroke-width="2" fill="none"/></g><g stroke-linecap="round" transform="translate(47.2451171875 261.96315002441406) rotate(0 20.2657470703125 18.62255859375)"><path d="M18.23 0.36 C22.26 -0.23, 27.73 1.4, 31.35 3.54 C34.98 5.69, 38.8 9.36, 39.98 13.23 C41.17 17.11, 40.31 23.03, 38.47 26.78 C36.63 30.52, 32.76 34, 28.93 35.71 C25.1 37.42, 19.71 38.04, 15.5 37.03 C11.3 36.03, 6.3 32.97, 3.71 29.69 C1.11 26.41, -0.35 21.41, -0.07 17.34 C0.22 13.27, 2.29 8.14, 5.42 5.28 C8.55 2.41, 16.31 0.98, 18.71 0.16 C21.1 -0.66, 19.78 0.14, 19.81 0.36 M22.89 -0.17 C27.01 -0.06, 31.33 2.36, 34.16 5.34 C36.98 8.32, 39.41 13.75, 39.84 17.71 C40.27 21.67, 39.09 25.96, 36.74 29.11 C34.39 32.26, 29.91 35.6, 25.75 36.6 C21.58 37.6, 15.73 36.92, 11.75 35.11 C7.78 33.29, 3.8 29.37, 1.9 25.72 C-0.01 22.07, -0.74 16.95, 0.32 13.19 C1.38 9.43, 4.71 5.34, 8.25 3.18 C11.8 1.02, 19.24 0.57, 21.57 0.23 C23.89 -0.12, 22.19 0.77, 22.22 1.12" stroke="#1e1e1e" stroke-width="2" fill="none"/></g></svg>